<svg width="120" height="120" viewBox="0 0 120 120" fill="none" xmlns="http://www.w3.org/2000/svg">
  <defs>
    <linearGradient id="eyeGradient-light" x1="0%" y1="0%" x2="100%" y2="100%">
      <stop offset="0%" stopColor="#ea5a8c" />
      <stop offset="100%" stopColor="#fca33e" />
    </linearGradient>
    <filter id="eyeGlow-light">
      <feGaussianBlur stdDeviation="3" result="coloredBlur"/>
      <feMerge>
        <feMergeNode in="coloredBlur"/>
        <feMergeNode in="SourceGraphic"/>
      </feMerge>
    </filter>
  </defs>
  
  <path
    d="M 60 35 Q 85 50 95 60 Q 85 70 60 85 Q 35 70 25 60 Q 35 50 60 35 Z"
    stroke="#f87f65"
    stroke-width="2.5"
    fill="none"
    filter="url(#eyeGlow-light)"
  />
  
  <g opacity="0.9">
    <ellipse cx="52" cy="62" rx="8" ry="6" fill="#ea5a8c" />
    <ellipse cx="60" cy="59" rx="7" ry="7" fill="#f87f65" />
    <ellipse cx="68" cy="62" rx="8" ry="6" fill="#fca33e" />
    <rect x="48" y="62" width="24" height="6" rx="2" fill="#f87f65" />
  </g>
  
  <circle
    cx="60"
    cy="60"
    r="20"
    stroke="#f87f65"
    stroke-width="1.5"
    fill="none"
    opacity="0.4"
  />
  
  <g opacity="0.3" stroke="#ea5a8c" stroke-width="1.5" stroke-linecap="round">
    <line x1="60" y1="45" x2="60" y2="48" />
    <line x1="60" y1="72" x2="60" y2="75" />
    <line x1="45" y1="60" x2="48" y2="60" />
    <line x1="72" y1="60" x2="75" y2="60" />
  </g>
  
  <g opacity="0.4" stroke="#ea5a8c" stroke-width="2" stroke-linecap="round">
    <path d="M 20 45 L 20 40 L 25 40" />
    <path d="M 100 45 L 100 40 L 95 40" />
    <path d="M 20 75 L 20 80 L 25 80" />
    <path d="M 100 75 L 100 80 L 95 80" />
  </g>
</svg>
